<mxfile host="Electron" agent="Mozilla/5.0 (Windows NT 10.0; Win64; x64) AppleWebKit/537.36 (KHTML, like Gecko) draw.io/26.2.2 Chrome/134.0.6998.178 Electron/35.1.2 Safari/537.36" version="26.2.2">
  <diagram name="Trang-1" id="VYOfpGNBxzc7tr72HHCN">
    <mxGraphModel dx="1305" dy="783" grid="1" gridSize="10" guides="1" tooltips="1" connect="1" arrows="1" fold="1" page="1" pageScale="1" pageWidth="1169" pageHeight="827" math="0" shadow="0">
      <root>
        <mxCell id="0" />
        <mxCell id="1" parent="0" />
        <mxCell id="h788Yx7m5Oe2TCDmqU_n-1" value="VanPhongDaiDien" style="swimlane;whiteSpace=wrap;html=1;swimlaneFillColor=default;" vertex="1" parent="1">
          <mxGeometry x="50" y="220" width="770" height="540" as="geometry" />
        </mxCell>
        <mxCell id="h788Yx7m5Oe2TCDmqU_n-2" value="&lt;h1 style=&quot;margin-top: 0px;&quot;&gt;&lt;div style=&quot;color: #3b3b3b;background-color: #ffffff;font-family: Consolas, &#39;Courier New&#39;, monospace;font-weight: normal;font-size: 14px;line-height: 19px;white-space: pre;&quot;&gt;&lt;div&gt;@&lt;span style=&quot;color: #267f99;&quot;&gt;Entity&lt;/span&gt;&lt;/div&gt;&lt;div&gt;@&lt;span style=&quot;color: #267f99;&quot;&gt;Table&lt;/span&gt;&lt;/div&gt;&lt;div&gt;@&lt;span style=&quot;color: #267f99;&quot;&gt;Data&lt;/span&gt;&lt;/div&gt;&lt;div&gt;&lt;span style=&quot;color: #0000ff;&quot;&gt;public&lt;/span&gt; &lt;span style=&quot;color: #0000ff;&quot;&gt;class&lt;/span&gt; &lt;span style=&quot;color: #267f99;&quot;&gt;VanPhongDaiDien&lt;/span&gt;{&lt;/div&gt;&lt;div&gt;&amp;nbsp; &amp;nbsp; @&lt;span style=&quot;color: #267f99;&quot;&gt;Id&lt;/span&gt;&lt;/div&gt;&lt;div&gt;&amp;nbsp; &amp;nbsp; @&lt;span style=&quot;color: #267f99;&quot;&gt;GeneratedValue&lt;/span&gt;(&lt;span style=&quot;color: #795e26;&quot;&gt;strategy&lt;/span&gt;&lt;span style=&quot;color: #000000;&quot;&gt;=&lt;/span&gt; &lt;span style=&quot;color: #267f99;&quot;&gt;GenerationType&lt;/span&gt;.&lt;span style=&quot;color: #0070c1;&quot;&gt;IDENTITY&lt;/span&gt;)&lt;/div&gt;&lt;div&gt;&amp;nbsp; &amp;nbsp; &lt;span style=&quot;color: #0000ff;&quot;&gt;private&lt;/span&gt; &lt;span style=&quot;color: #267f99;&quot;&gt;Long&lt;/span&gt; &lt;span style=&quot;color: #001080;&quot;&gt;maTP&lt;/span&gt;;&lt;/div&gt;&lt;br&gt;&lt;div&gt;&amp;nbsp; &amp;nbsp; &lt;span style=&quot;color: #0000ff;&quot;&gt;private&lt;/span&gt; &lt;span style=&quot;color: #267f99;&quot;&gt;String&lt;/span&gt; &lt;span style=&quot;color: #001080;&quot;&gt;tenTP&lt;/span&gt;;&lt;/div&gt;&lt;br&gt;&lt;div&gt;&amp;nbsp; &amp;nbsp; &lt;span style=&quot;color: #0000ff;&quot;&gt;private&lt;/span&gt; &lt;span style=&quot;color: #267f99;&quot;&gt;String&lt;/span&gt; &lt;span style=&quot;color: #001080;&quot;&gt;diaChiVp&lt;/span&gt;;&lt;/div&gt;&lt;br&gt;&lt;div&gt;&amp;nbsp; &amp;nbsp; &lt;span style=&quot;color: #0000ff;&quot;&gt;private&lt;/span&gt; &lt;span style=&quot;color: #267f99;&quot;&gt;String&lt;/span&gt; &lt;span style=&quot;color: #001080;&quot;&gt;bang&lt;/span&gt;;&lt;/div&gt;&lt;br&gt;&lt;div&gt;&amp;nbsp; &amp;nbsp; &lt;span style=&quot;color: #0000ff;&quot;&gt;private&lt;/span&gt; &lt;span style=&quot;color: #267f99;&quot;&gt;Timestamp&lt;/span&gt; &lt;span style=&quot;color: #001080;&quot;&gt;thoiGianLapVp&lt;/span&gt;;&lt;/div&gt;&lt;br&gt;&lt;div&gt;&amp;nbsp; &amp;nbsp; &lt;span style=&quot;color: #008000;&quot;&gt;// 🟥🟥🟥🟥🟥🟥🟥🟥🟥🟥🟥🟥🟥🟥🟥🟥🟥🟥🟥🟥🟥 One(this= vpdd) có Many(cửa hàng)&lt;/span&gt;&lt;/div&gt;&lt;div&gt;&amp;nbsp; &amp;nbsp; @&lt;span style=&quot;color: #267f99;&quot;&gt;OneToMany&lt;/span&gt;(&lt;span style=&quot;color: #795e26;&quot;&gt;mappedBy&lt;/span&gt; &lt;span style=&quot;color: #000000;&quot;&gt;=&lt;/span&gt; &lt;span style=&quot;color: #a31515;&quot;&gt;&quot;vpdd&quot;&lt;/span&gt;)&lt;/div&gt;&lt;div&gt;&amp;nbsp; &amp;nbsp; &lt;span style=&quot;color: #267f99;&quot;&gt;Set&lt;/span&gt;&amp;lt;&lt;span style=&quot;color: #267f99;&quot;&gt;CuaHang&lt;/span&gt;&amp;gt; &lt;span style=&quot;color: #001080;&quot;&gt;listCuahang&lt;/span&gt;;&lt;/div&gt;&lt;div&gt;&amp;nbsp; &amp;nbsp; &lt;span style=&quot;color: #008000;&quot;&gt;// 🟥🟥🟥🟥🟥🟥🟥🟥🟥🟥🟥🟥🟥🟥🟥🟥🟥🟥🟥🟥🟥&lt;/span&gt;&lt;/div&gt;&lt;div&gt;&lt;span style=&quot;color: rgb(0, 128, 0);&quot;&gt; &lt;/span&gt;&lt;/div&gt;}&lt;/div&gt;&lt;/h1&gt;" style="text;html=1;whiteSpace=wrap;overflow=hidden;rounded=0;" vertex="1" parent="h788Yx7m5Oe2TCDmqU_n-1">
          <mxGeometry x="19" y="60" width="751" height="480" as="geometry" />
        </mxCell>
        <mxCell id="h788Yx7m5Oe2TCDmqU_n-3" value="CuaHang" style="swimlane;whiteSpace=wrap;html=1;swimlaneFillColor=default;" vertex="1" parent="1">
          <mxGeometry x="1050" y="220" width="790" height="540" as="geometry" />
        </mxCell>
        <mxCell id="h788Yx7m5Oe2TCDmqU_n-4" value="&lt;h1 style=&quot;margin-top: 0px;&quot;&gt;&lt;div style=&quot;color: #3b3b3b;background-color: #ffffff;font-family: Consolas, &#39;Courier New&#39;, monospace;font-weight: normal;font-size: 14px;line-height: 19px;white-space: pre;&quot;&gt;&lt;div style=&quot;line-height: 19px;&quot;&gt;&lt;div&gt;@&lt;span style=&quot;color: #267f99;&quot;&gt;Entity&lt;/span&gt;&lt;/div&gt;&lt;div&gt;@&lt;span style=&quot;color: #267f99;&quot;&gt;Table&lt;/span&gt;&lt;/div&gt;&lt;div&gt;@&lt;span style=&quot;color: #267f99;&quot;&gt;Data&lt;/span&gt;&lt;/div&gt;&lt;div&gt;&lt;span style=&quot;color: #0000ff;&quot;&gt;public&lt;/span&gt; &lt;span style=&quot;color: #0000ff;&quot;&gt;class&lt;/span&gt; &lt;span style=&quot;color: #267f99;&quot;&gt;CuaHang&lt;/span&gt; {&lt;/div&gt;&lt;div&gt;&amp;nbsp; &amp;nbsp; &lt;/div&gt;&lt;div&gt;&amp;nbsp; &amp;nbsp; @&lt;span style=&quot;color: #267f99;&quot;&gt;Id&lt;/span&gt;&lt;/div&gt;&lt;div&gt;&amp;nbsp; &amp;nbsp; @&lt;span style=&quot;color: #267f99;&quot;&gt;GeneratedValue&lt;/span&gt;(&lt;span style=&quot;color: #795e26;&quot;&gt;strategy&lt;/span&gt; &lt;span style=&quot;color: #000000;&quot;&gt;=&lt;/span&gt; &lt;span style=&quot;color: #267f99;&quot;&gt;GenerationType&lt;/span&gt;.&lt;span style=&quot;color: #0070c1;&quot;&gt;IDENTITY&lt;/span&gt;)&lt;/div&gt;&lt;div&gt;&amp;nbsp; &amp;nbsp; &lt;span style=&quot;color: #0000ff;&quot;&gt;private&lt;/span&gt; &lt;span style=&quot;color: #267f99;&quot;&gt;Long&lt;/span&gt; &lt;span style=&quot;color: #001080;&quot;&gt;maCH&lt;/span&gt;;&lt;/div&gt;&lt;br&gt;&lt;div&gt;&amp;nbsp; &amp;nbsp; &lt;span style=&quot;color: #0000ff;&quot;&gt;private&lt;/span&gt; &lt;span style=&quot;color: #267f99;&quot;&gt;String&lt;/span&gt; &lt;span style=&quot;color: #001080;&quot;&gt;soDT&lt;/span&gt;;&lt;/div&gt;&lt;div&gt;&amp;nbsp; &amp;nbsp; &lt;span style=&quot;color: #0000ff;&quot;&gt;private&lt;/span&gt; &lt;span style=&quot;color: #267f99;&quot;&gt;Timestamp&lt;/span&gt; &lt;span style=&quot;color: #001080;&quot;&gt;thoigianmoban&lt;/span&gt;;&lt;/div&gt;&lt;div style=&quot;line-height: 19px;&quot;&gt;&lt;br&gt;&lt;/div&gt;&lt;div style=&quot;line-height: 19px;&quot;&gt;&lt;br&gt;&lt;/div&gt;&lt;div style=&quot;line-height: 19px;&quot;&gt;&lt;br&gt;&lt;/div&gt;&lt;div style=&quot;line-height: 19px;&quot;&gt;&lt;br&gt;&lt;/div&gt;&lt;div&gt;&amp;nbsp; &amp;nbsp; &lt;span style=&quot;color: rgb(0, 128, 0);&quot;&gt;// 🟥🟥🟥🟥🟥🟥🟥🟥🟥🟥🟥🟥🟥🟥🟥🟥🟥🟥🟥🟥🟥&lt;/span&gt;&lt;span style=&quot;color: rgb(0, 128, 0);&quot;&gt; Many(this= Cửa hàng)- One(vpdd)&lt;/span&gt;&lt;/div&gt;&lt;div&gt;&amp;nbsp; &amp;nbsp; @&lt;span style=&quot;color: #267f99;&quot;&gt;ManyToOne&lt;/span&gt;&lt;/div&gt;&lt;div&gt;&amp;nbsp; &amp;nbsp; @&lt;span style=&quot;color: #267f99;&quot;&gt;JoinColumn&lt;/span&gt;(&lt;span style=&quot;color: #795e26;&quot;&gt;name&lt;/span&gt; &lt;span style=&quot;color: #000000;&quot;&gt;=&lt;/span&gt; &lt;span style=&quot;color: #a31515;&quot;&gt;&quot;matp&quot;&lt;/span&gt;)&lt;/div&gt;&lt;div&gt;&amp;nbsp; &amp;nbsp; &lt;span style=&quot;color: #0000ff;&quot;&gt;private&lt;/span&gt; &lt;span style=&quot;color: #267f99;&quot;&gt;VanPhongDaiDien&lt;/span&gt; &lt;span style=&quot;color: #001080;&quot;&gt;vpdd&lt;/span&gt;;&lt;/div&gt;&lt;div&gt;&amp;nbsp; &amp;nbsp; &lt;span style=&quot;color: #008000;&quot;&gt;// &lt;/span&gt;&lt;span style=&quot;color: rgb(0, 128, 0);&quot;&gt;🟥🟥🟥🟥🟥🟥🟥🟥🟥🟥🟥🟥🟥🟥🟥🟥🟥🟥🟥🟥🟥&lt;/span&gt;&lt;/div&gt;&lt;div&gt;&lt;span style=&quot;color: rgb(0, 128, 0);&quot;&gt;&lt;br&gt;&lt;/span&gt;&lt;/div&gt;&lt;br&gt;}&lt;/div&gt;&lt;/div&gt;&lt;/h1&gt;" style="text;html=1;whiteSpace=wrap;overflow=hidden;rounded=0;" vertex="1" parent="h788Yx7m5Oe2TCDmqU_n-3">
          <mxGeometry x="19" y="60" width="771" height="480" as="geometry" />
        </mxCell>
        <mxCell id="h788Yx7m5Oe2TCDmqU_n-5" style="edgeStyle=orthogonalEdgeStyle;rounded=0;orthogonalLoop=1;jettySize=auto;html=1;exitX=1;exitY=0.75;exitDx=0;exitDy=0;entryX=0;entryY=0.75;entryDx=0;entryDy=0;strokeWidth=6;endArrow=diamondThin;endFill=0;endSize=46;" edge="1" parent="1" source="h788Yx7m5Oe2TCDmqU_n-2" target="h788Yx7m5Oe2TCDmqU_n-3">
          <mxGeometry relative="1" as="geometry" />
        </mxCell>
        <mxCell id="h788Yx7m5Oe2TCDmqU_n-6" value="1" style="edgeLabel;html=1;align=center;verticalAlign=middle;resizable=0;points=[];fontSize=29;" vertex="1" connectable="0" parent="h788Yx7m5Oe2TCDmqU_n-5">
          <mxGeometry x="-0.7758" y="2" relative="1" as="geometry">
            <mxPoint y="-28" as="offset" />
          </mxGeometry>
        </mxCell>
        <mxCell id="h788Yx7m5Oe2TCDmqU_n-7" value="N" style="edgeLabel;html=1;align=center;verticalAlign=middle;resizable=0;points=[];fontSize=23;" vertex="1" connectable="0" parent="h788Yx7m5Oe2TCDmqU_n-5">
          <mxGeometry x="0.3348" y="1" relative="1" as="geometry">
            <mxPoint x="41" y="-34" as="offset" />
          </mxGeometry>
        </mxCell>
      </root>
    </mxGraphModel>
  </diagram>
</mxfile>
